<svg id="Calque_1" data-name="Calque 1" xmlns="http://www.w3.org/2000/svg" viewBox="0 0 665.96 245.04"><defs><style>.cls-1{fill:#009fe3;}.cls-2{fill:#fff;}</style></defs><title>bouton_haut</title><path class="cls-1" d="M601.74,215.22H64.36A64.22,64.22,0,0,1,.14,151V64.22A64.22,64.22,0,0,1,64.36,0H601.74A64.22,64.22,0,0,1,666,64.22V151a64.22,64.22,0,0,1-64.22,64.22"/><path class="cls-2" d="M69.72,116.56H90.87v32.76c0,15.24-5.14,30.67-25.71,30.67H60.39c-21.9,0-26.48-15.62-26.48-29.9V63.61c0-14.48,6.29-28.38,25.71-28.38h5c23.62,0,26.29,15.62,26.29,29.52V90.08H69.72v-25c0-6.09-1.91-9.33-7.24-9.33s-6.67,3-6.67,9.33v84.19q0,9.71,6.86,9.71c5.14,0,7-3.62,7-9.52Z"/><path class="cls-2" d="M156.77,146.66c0,19.81-6.67,33.33-27.43,33.33h-3.62c-20.57,0-27.81-13.52-27.81-33.33V67.8c0-19.81,7.24-32.57,27.62-32.57h3.62c21,0,27.62,13,27.62,32.38Zm-21.9-80q0-10.86-7.43-10.86c-5.52,0-7.62,3.43-7.62,10.86v81.52c0,6.1,1.71,10.86,7.81,10.86,5.9,0,7.24-4.76,7.24-10.86Z"/><polygon class="cls-2" points="164.96 36.56 192.58 36.56 202.86 111.42 213.34 36.56 239.06 36.56 239.06 178.28 218.86 178.28 218.86 86.66 205.91 178.28 197.34 178.28 184.2 86.66 184.2 178.28 164.96 178.28 164.96 36.56"/><polygon class="cls-2" points="247.82 36.56 275.44 36.56 285.72 111.42 296.2 36.56 321.91 36.56 321.91 178.28 301.72 178.28 301.72 86.66 288.77 178.28 280.2 178.28 267.05 86.66 267.05 178.28 247.82 178.28 247.82 36.56"/><polygon class="cls-2" points="379.63 36.56 379.63 57.13 352.2 57.13 352.2 94.28 373.72 94.28 373.72 115.8 352.2 115.8 352.2 156.75 380.77 156.75 380.77 178.28 330.67 178.28 330.67 36.56 379.63 36.56"/><polygon class="cls-2" points="406.48 36.56 424.96 112.56 424.96 36.56 444.57 36.56 444.57 178.28 427.05 178.28 406.48 96.75 406.48 178.28 387.05 178.28 387.05 36.56 406.48 36.56"/><path class="cls-2" d="M488.57,116.56h21.14v32.76c0,15.24-5.14,30.67-25.71,30.67h-4.76c-21.9,0-26.48-15.62-26.48-29.9V63.61c0-14.48,6.29-28.38,25.71-28.38h5c23.62,0,26.29,15.62,26.29,29.52V90.08H488.57v-25c0-6.09-1.91-9.33-7.24-9.33s-6.67,3-6.67,9.33v84.19q0,9.71,6.86,9.71c5.14,0,7-3.62,7-9.52Z"/><polygon class="cls-2" points="566.29 36.56 566.29 57.13 538.86 57.13 538.86 94.28 560.38 94.28 560.38 115.8 538.86 115.8 538.86 156.75 567.43 156.75 567.43 178.28 517.34 178.28 517.34 36.56 566.29 36.56"/><path class="cls-2" d="M595.24,178.28H573.72V36.56h34.86c14.48,0,21.52,5.9,21.52,21.9V83.61c0,11.81-5.52,16.57-9.33,18.1,4.76,2.1,9.33,5.71,9.33,15.43v49.71c0,5.9,1.14,8.38,2.09,10.48v1H610.86c-1-1.52-2.09-4-2.09-11.62V124c0-6.29-1.14-9-8-9h-5.52Zm0-83.43H601c5.9,0,7.81-3.81,7.81-10.09V64.94c0-6.1-1.14-9.14-7.81-9.14h-5.71Z"/></svg>